# xmcd
#
# Track frame offsets:
#	150
#	14598
#	26272
#	43685
#	59084
#	75713
#	93754
#	117038
#	131178
#	149075
#	166333
#	191129
#	205778
#	238363
#	264584
#	277079
#
# Disc length: 3971 seconds
#
# Revision: 3844085790
# Processed by: cddbd v1.5.2PL0 Copyright (c) Steve Scherf et al.
# Submitted via: EZCDAudioConverter 8.0.7.1
#
DISCID=f20f8110
DTITLE=Zac Brown Band - Jekyll and Hyde
DYEAR=2015
DGENRE=Country
TTITLE0=Zac Brown Band - Beautiful Drug
TTITLE1=Zac Brown Band - Loving You Easy
TTITLE2=Zac Brown Band - Remedy
TTITLE3=Zac Brown Band - Homegrown
TTITLE4=Zac Brown Band Feat. Sara Bareilles - Mango Tree
TTITLE5=Zac Brown Band Feat. Chris Cornell - Heavy Is The Head
TTITLE6=Zac Brown Band - Bittersweet
TTITLE7=Zac Brown Band - Castaway
TTITLE8=Zac Brown Band - Tomorrow Never Comes
TTITLE9=Zac Brown Band - One Day
TTITLE10=Zac Brown Band - Dress Blues
TTITLE11=Zac Brown Band - Young And Wild
TTITLE12=Zac Brown Band - Junkyard
TTITLE13=Zac Brown Band - I’Ll Be Your Man (Song For A Daughter)
TTITLE14=Zac Brown Band - Wildfire
TTITLE15=Zac Brown Band - Tomorrow Never Comes [Acoustic]
EXTD=
EXTT0=
EXTT1=
EXTT2=
EXTT3=
EXTT4=
EXTT5=
EXTT6=
EXTT7=
EXTT8=
EXTT9=
EXTT10=
EXTT11=
EXTT12=
EXTT13=
EXTT14=
EXTT15=
PLAYORDER=
